<?xml version="1.0" encoding="iso-8859-1"?>
<!-- Generator: Adobe Illustrator 19.0.0, SVG Export Plug-In . SVG Version: 6.00 Build 0)  -->
<svg version="1.1" id="Layer_1" xmlns="http://www.w3.org/2000/svg" xmlnsXlink="http://www.w3.org/1999/xlink" x="0px" y="0px"
	 viewBox="0 0 512 512" style="enable-background:new 0 0 512 512;" xmlSpace="preserve">
<path style="fill:#B9D8F4;" d="M256,0C114.615,0,0,114.615,0,256s114.615,256,256,256s256-114.615,256-256S397.385,0,256,0z
	 M256,323.918c-37.45,0-67.918-30.468-67.918-67.918S218.55,188.082,256,188.082S323.918,218.55,323.918,256
	S293.45,323.918,256,323.918z"/>
<g>
	<path style="fill:#D1E7F8;" d="M212.676,203.739L92.611,58.925c-27.801,23.074-50.633,51.921-66.673,84.7l169.051,82.573
		C199.248,217.512,205.305,209.863,212.676,203.739z"/>
	<path style="fill:#D1E7F8;" d="M270.703,189.702L311.42,6.033C293.575,2.094,275.035,0,256.004,0
		c-17.87,0-35.31,1.837-52.148,5.322l38.314,184.18C248.166,187.562,265.407,187.693,270.703,189.702z"/>
	<path style="fill:#D1E7F8;" d="M273.347,321.629l48.082,181.866c34.924-9.254,67.766-25.833,96.097-48.834L298.836,308.684
		C291.32,314.775,282.609,319.171,273.347,321.629z"/>
	<path style="fill:#D1E7F8;" d="M214.794,309.979l-114.14,149.545c14.539,11.075,30.481,20.767,47.749,28.766
		c16.216,7.511,32.813,13.173,49.555,17.088l42.643-183.226C233.146,320.917,220.607,314.909,214.794,309.979z"/>
</g>
<path style="fill:#FFEB99;" d="M256,161.959c-51.854,0-94.041,42.187-94.041,94.041s42.187,94.041,94.041,94.041
	s94.041-42.187,94.041-94.041S307.854,161.959,256,161.959z M256,323.918c-37.45,0-67.918-30.468-67.918-67.918
	S218.55,188.082,256,188.082S323.918,218.55,323.918,256S293.45,323.918,256,323.918z"/>
<g>
	<path style="fill:#D1E7F8;" d="M475.429,263.837c-4.328,0-7.837-3.509-7.837-7.837c0-15.549-1.702-31.064-5.059-46.11
		c-0.943-4.225,1.718-8.412,5.942-9.355c4.228-0.947,8.412,1.719,9.355,5.942c3.607,16.167,5.436,32.829,5.436,49.524
		C483.265,260.328,479.757,263.837,475.429,263.837z"/>
	<path style="fill:#D1E7F8;" d="M450.383,172.422c-13.252-30.7-33.957-58.238-59.876-79.637c-3.337-2.755-3.81-7.696-1.054-11.033
		c2.756-3.337,7.696-3.81,11.033-1.054c27.826,22.973,50.056,52.543,64.287,85.512c1.716,3.974-0.172,8.458-4.09,10.301
		C456.624,178.419,451.661,175.383,450.383,172.422z"/>
</g>
<g>
</g>
<g>
</g>
<g>
</g>
<g>
</g>
<g>
</g>
<g>
</g>
<g>
</g>
<g>
</g>
<g>
</g>
<g>
</g>
<g>
</g>
<g>
</g>
<g>
</g>
<g>
</g>
<g>
</g>
</svg>
