<svg xmlns="http://www.w3.org/2000/svg" xmlnsXlink="http://www.w3.org/1999/xlink" version="1.1" id="Layer_1" x="0px" y="0px" style="enable-background:new 0 0 512 512;" xmlSpace="preserve" viewBox="0 137.77 512 236.47">
<g>
	<path style="fill:#FFCD00;" d="M290.964,328.539H157.962c-8.656,0-15.673-7.018-15.673-15.673c0-8.656,7.018-15.673,15.673-15.673   h133.002c8.656,0,15.673,7.018,15.673,15.673C306.638,321.521,299.621,328.539,290.964,328.539z"/>
	<rect x="216.628" y="150.81" style="fill:#FFCD00;" width="15.673" height="38.378"/>
</g>
<path style="fill:#FFDE55;" d="M235.609,158.302h-22.291c-4.328,0-7.837-3.509-7.837-7.837c0-4.328,3.509-7.837,7.837-7.837h22.291  c4.328,0,7.837,3.509,7.837,7.837C243.446,154.793,239.937,158.302,235.609,158.302z"/>
<rect x="261.151" y="150.81" style="fill:#FFCD00;" width="15.673" height="38.378"/>
<path style="fill:#FFDE55;" d="M280.131,158.302H257.84c-4.328,0-7.837-3.509-7.837-7.837c0-4.328,3.509-7.837,7.837-7.837h22.291  c4.328,0,7.837,3.509,7.837,7.837C287.968,154.793,284.459,158.302,280.131,158.302z"/>
<rect x="172.105" y="150.643" style="fill:#FFCD00;" width="15.673" height="38.378"/>
<g>
	<path style="fill:#FFDE55;" d="M191.087,158.128h-22.291c-4.328,0-7.837-3.509-7.837-7.837s3.509-7.837,7.837-7.837h22.291   c4.328,0,7.837,3.509,7.837,7.837S195.416,158.128,191.087,158.128z"/>
	<path style="fill:#FFDE55;" d="M314.435,221.588H32.464v21.698l281.971-0.668c22.759,0,41.276,21.762,41.276,44.522   s-18.516,41.276-41.276,41.276h-39.884v23.188h39.884c35.545,0,64.464-28.919,64.464-64.464S349.98,221.588,314.435,221.588z"/>
</g>
<path style="fill:#FFCD00;" d="M314.435,221.588H32.464v21.698l281.971-0.668c18.298,0,33.845,14.071,39.24,31.414  c0,0,11.873,32.241-5.302,61.875l0.004-0.001c0,0-5.326,9.736,6.671,1.241c14.542-11.826,23.851-29.845,23.851-50.007  C378.899,251.596,349.98,221.588,314.435,221.588z"/>
<path style="fill:#FFE477;" d="M489.728,137.766c-2.683,0-7.642,4.36-7.643,4.361c-0.047,0.055-46.551,56.188-165.704,56.188  H156.444c-26.141,0-46.672,8.676-61.023,23.956c-21.212,22.588-20.629,53.551-20.444,57.744  c0.095,29.453,14.295,51.26,41.079,63.072c19.081,8.416,38.011,8.516,38.84,8.516c0.001,0,0.002,0,0.003,0h122.435v-23.188H154.928  c-0.153-0.001-15.423-0.161-30.077-6.795c-17.957-8.128-26.686-21.834-26.686-41.9l0.003-0.316l-0.023-0.364  c-0.014-0.246-1.15-24.713,14.308-41.032c9.792-10.337,24.439-16.422,43.838-16.422l157.379-0.001  c119.153,0,168.368,56.049,168.415,56.105c0.001,0.001,3.793,4.361,7.643,4.361c12.301,0,22.272-32.3,22.272-72.144  C512,170.065,502.029,137.766,489.728,137.766z"/>
<path style="fill:#FFD422;" d="M155.331,209.235c0,0-57.464,2.426-57.213,67.775c0.091-6.214,1.462-25.42,14.325-39  c9.792-10.337,24.439-16.422,43.838-16.422l157.379-0.001c119.153,0,168.422,56.114,168.422,56.114s4.188,4.353,7.637,4.353  c5.472,0,10.481-6.404,14.359-17.011c-0.156-0.125-69.523-55.808-171.808-55.808C331.571,208.457,155.331,209.235,155.331,209.235z"/>
<path style="fill:#FFEB99;" d="M179.942,374.234c-8.656,0-15.673-7.018-15.673-15.673V189.504c0-8.656,7.018-15.673,15.673-15.673  s15.673,7.018,15.673,15.673v169.057C195.615,367.217,188.598,374.234,179.942,374.234z"/>
<path style="fill:#FFF5CC;" d="M179.942,358.561V189.504c0-5.798,3.157-10.848,7.837-13.56c-2.307-1.336-4.979-2.114-7.837-2.114  c-8.656,0-15.673,7.018-15.673,15.673v169.057c0,8.656,7.018,15.673,15.673,15.673c2.858,0,5.53-0.777,7.837-2.114  C183.099,369.409,179.942,364.359,179.942,358.561z"/>
<path style="fill:#FFEB99;" d="M224.464,374.234c-8.656,0-15.673-7.018-15.673-15.673V189.504c0-8.656,7.018-15.673,15.673-15.673  s15.673,7.018,15.673,15.673v169.057C240.137,367.217,233.12,374.234,224.464,374.234z"/>
<path style="fill:#FFF5CC;" d="M224.464,358.561V189.504c0-5.798,3.157-10.848,7.837-13.56c-2.307-1.336-4.979-2.114-7.837-2.114  c-8.656,0-15.673,7.018-15.673,15.673v169.057c0,8.656,7.018,15.673,15.673,15.673c2.858,0,5.53-0.777,7.837-2.114  C227.621,369.409,224.464,364.359,224.464,358.561z"/>
<path style="fill:#FFEB99;" d="M268.986,374.234c-8.656,0-15.673-7.018-15.673-15.673V189.504c0-8.656,7.018-15.673,15.673-15.673  c8.656,0,15.673,7.018,15.673,15.673v169.057C284.659,367.217,277.642,374.234,268.986,374.234z"/>
<path style="fill:#FFF5CC;" d="M268.986,358.561V189.504c0-5.798,3.157-10.848,7.837-13.56c-2.307-1.336-4.979-2.114-7.837-2.114  c-8.656,0-15.673,7.018-15.673,15.673v169.057c0,8.656,7.018,15.673,15.673,15.673c2.858,0,5.53-0.777,7.837-2.114  C272.143,369.409,268.986,364.359,268.986,358.561z"/>
<rect x="32.465" y="221.592" style="fill:#DDB200;" width="21.174" height="21.648"/>
<path style="fill:#EEBF00;" d="M4.711,255.041l30.316-5.584c1.892-0.349,3.266-1.999,3.266-3.923v-26.725  c0-1.925-1.374-3.575-3.266-3.923l-30.316-5.584c-1.165-0.214-2.365,0.099-3.275,0.858C0.527,210.916,0,212.039,0,213.223v37.894  c0,1.185,0.527,2.307,1.437,3.066C2.347,254.942,3.546,255.255,4.711,255.041z"/>
<path style="fill:#CCA400;" d="M15.344,213.223c0-0.665,0.181-1.302,0.488-1.875l-11.121-2.049  c-1.165-0.214-2.365,0.099-3.275,0.858C0.527,210.916,0,212.039,0,213.223v37.894c0,1.185,0.527,2.307,1.437,3.066  c0.91,0.759,2.11,1.072,3.275,0.858l11.121-2.049c-0.306-0.573-0.488-1.209-0.488-1.875  C15.344,251.117,15.344,213.223,15.344,213.223z"/>
<g>
</g>
<g>
</g>
<g>
</g>
<g>
</g>
<g>
</g>
<g>
</g>
<g>
</g>
<g>
</g>
<g>
</g>
<g>
</g>
<g>
</g>
<g>
</g>
<g>
</g>
<g>
</g>
<g>
</g>
</svg>