<?xml version="1.0" encoding="utf-8"?>
<svg version="1.1" id="Layer_1" x="0px" y="0px" style="enable-background:new 0 0 512 512;" viewBox="0 142.32 512 227.37" xmlns="http://www.w3.org/2000/svg">
  <path style="fill:#787680;" d="M495.282,369.683H16.718C7.523,369.683,0,362.16,0,352.965V211.244  c0-9.195,7.523-16.718,16.718-16.718h478.563c9.195,0,16.718,7.523,16.718,16.718v141.722  C512,362.16,504.477,369.683,495.282,369.683z"/>
  <g>
    <path style="fill:#57565C;" d="M26.947,352.965V211.244c0-9.195,7.523-16.718,16.718-16.718H16.718   C7.523,194.526,0,202.049,0,211.244v141.722c0,9.195,7.523,16.718,16.718,16.718h26.947   C34.471,369.683,26.947,362.16,26.947,352.965z"/>
    <rect x="485.052" y="225.687" style="fill:#57565C;" width="26.947" height="26.947"/>
  </g>
  <rect x="26.947" y="225.687" style="fill: rgb(106, 126, 184);" width="26.947" height="116.214"/>
  <rect x="53.895" y="225.687" style="fill:#FFFFFF;" width="26.947" height="116.214"/>
  <rect x="80.844" y="225.687" style="fill:#E0E0E2;" width="26.947" height="116.214"/>
  <rect x="107.792" y="225.687" style="fill:#FFFFFF;" width="26.947" height="116.214"/>
  <rect x="134.74" y="225.687" style="fill: rgb(84, 171, 69);" width="26.947" height="116.214"/>
  <rect x="161.688" y="225.687" style="fill: rgb(141, 112, 171);" width="26.947" height="116.214"/>
  <rect x="188.635" y="225.687" style="fill:#E0E0E2;" width="26.947" height="116.214"/>
  <rect x="215.583" y="225.687" style="fill:#FFFFFF;" width="26.947" height="116.214"/>
  <rect x="242.521" y="225.687" style="fill:#E0E0E2;" width="26.947" height="116.214"/>
  <rect x="269.469" y="225.687" style="fill:#FFFFFF;" width="26.947" height="116.214"/>
  <rect x="296.417" y="225.687" style="fill:#E0E0E2;" width="26.947" height="116.214"/>
  <rect x="323.365" y="225.687" style="fill:#FFFFFF;" width="26.947" height="116.214"/>
  <rect x="350.313" y="225.687" style="fill:#E0E0E2;" width="26.947" height="116.214"/>
  <rect x="377.26" y="225.687" style="fill:#FFFFFF;" width="26.947" height="116.214"/>
  <rect x="404.208" y="225.687" style="fill:#E0E0E2;" width="26.947" height="116.214"/>
  <rect x="431.156" y="225.687" style="fill:#FFFFFF;" width="26.947" height="116.214"/>
  <rect x="458.104" y="225.687" style="fill:#E0E0E2;" width="26.947" height="116.214"/>
  <rect x="26.947" y="225.687" style="fill: rgb(106, 126, 184);" width="26.947" height="26.947"/>
  <rect x="53.895" y="225.687" style="fill:#E0E0E2;" width="26.947" height="26.947"/>
  <rect x="80.844" y="225.687" style="fill:#C6C5CA;" width="26.947" height="26.947"/>
  <rect x="107.792" y="225.687" style="fill:#E0E0E2;" width="26.947" height="26.947"/>
  <rect x="134.74" y="225.687" style="fill: rgb(84, 171, 69);" width="26.947" height="26.947"/>
  <rect x="161.688" y="225.687" style="fill: rgb(141, 112, 171);" width="26.947" height="26.947"/>
  <rect x="188.635" y="225.687" style="fill:#C6C5CA;" width="26.947" height="26.947"/>
  <rect x="215.583" y="225.687" style="fill:#E0E0E2;" width="26.947" height="26.947"/>
  <rect x="242.521" y="225.687" style="fill:#C6C5CA;" width="26.947" height="26.947"/>
  <rect x="269.469" y="225.687" style="fill:#E0E0E2;" width="26.947" height="26.947"/>
  <rect x="296.417" y="225.687" style="fill:#C6C5CA;" width="26.947" height="26.947"/>
  <rect x="323.365" y="225.687" style="fill:#E0E0E2;" width="26.947" height="26.947"/>
  <rect x="350.313" y="225.687" style="fill:#C6C5CA;" width="26.947" height="26.947"/>
  <rect x="377.26" y="225.687" style="fill:#E0E0E2;" width="26.947" height="26.947"/>
  <rect x="404.208" y="225.687" style="fill:#C6C5CA;" width="26.947" height="26.947"/>
  <rect x="431.156" y="225.687" style="fill:#E0E0E2;" width="26.947" height="26.947"/>
  <rect x="458.104" y="225.687" style="fill:#C6C5CA;" width="26.947" height="26.947"/>
  <g>
    <path style="fill: rgb(196, 76, 84);" d="M53.895,295.298c-4.328,0-7.837-3.509-7.837-7.837v-98.917c0-4.328,3.509-7.837,7.837-7.837   s7.837,3.509,7.837,7.837v98.917C61.732,291.789,58.223,295.298,53.895,295.298z"/>
    <path style="fill:#1D1D1F;" d="M80.843,295.298c-4.328,0-7.837-3.509-7.837-7.837v-98.917c0-4.328,3.509-7.837,7.837-7.837   s7.837,3.509,7.837,7.837v98.917C88.679,291.789,85.171,295.298,80.843,295.298z"/>
    <path style="fill:#1D1D1F;" d="M134.736,295.298c-4.328,0-7.837-3.509-7.837-7.837v-98.917c0-4.328,3.509-7.837,7.837-7.837   c4.328,0,7.837,3.509,7.837,7.837v98.917C142.573,291.789,139.064,295.298,134.736,295.298z"/>
    <path style="fill:#1D1D1F;" d="M161.684,295.298c-4.328,0-7.837-3.509-7.837-7.837v-98.917c0-4.328,3.509-7.837,7.837-7.837   c4.328,0,7.837,3.509,7.837,7.837v98.917C169.521,291.789,166.012,295.298,161.684,295.298z"/>
    <path style="fill:#1D1D1F;" d="M188.631,295.298c-4.328,0-7.837-3.509-7.837-7.837v-98.917c0-4.328,3.509-7.837,7.837-7.837   c4.328,0,7.837,3.509,7.837,7.837v98.917C196.468,291.789,192.959,295.298,188.631,295.298z"/>
    <path style="fill:#1D1D1F;" d="M242.526,295.298c-4.328,0-7.837-3.509-7.837-7.837v-98.917c0-4.328,3.509-7.837,7.837-7.837   c4.328,0,7.837,3.509,7.837,7.837v98.917C250.363,291.789,246.855,295.298,242.526,295.298z"/>
    <path style="fill:#1D1D1F;" d="M269.474,295.298c-4.328,0-7.837-3.509-7.837-7.837v-98.917c0-4.328,3.509-7.837,7.837-7.837   s7.837,3.509,7.837,7.837v98.917C277.311,291.789,273.802,295.298,269.474,295.298z"/>
    <path style="fill:#1D1D1F;" d="M323.369,295.298c-4.328,0-7.837-3.509-7.837-7.837v-98.917c0-4.328,3.509-7.837,7.837-7.837   s7.837,3.509,7.837,7.837v98.917C331.205,291.789,327.697,295.298,323.369,295.298z"/>
    <path style="fill:#1D1D1F;" d="M350.316,295.298c-4.328,0-7.837-3.509-7.837-7.837v-98.917c0-4.328,3.509-7.837,7.837-7.837   s7.837,3.509,7.837,7.837v98.917C358.152,291.789,354.644,295.298,350.316,295.298z"/>
    <path style="fill:#1D1D1F;" d="M377.264,295.298c-4.328,0-7.837-3.509-7.837-7.837v-98.917c0-4.328,3.509-7.837,7.837-7.837   c4.328,0,7.837,3.509,7.837,7.837v98.917C385.1,291.789,381.591,295.298,377.264,295.298z"/>
    <path style="fill:#1D1D1F;" d="M431.157,295.298c-4.328,0-7.837-3.509-7.837-7.837v-98.917c0-4.328,3.509-7.837,7.837-7.837   s7.837,3.509,7.837,7.837v98.917C438.994,291.789,435.485,295.298,431.157,295.298z"/>
    <path style="fill:#1D1D1F;" d="M458.105,295.298c-4.328,0-7.837-3.509-7.837-7.837v-98.917c0-4.328,3.509-7.837,7.837-7.837   c4.328,0,7.837,3.509,7.837,7.837v98.917C465.942,291.789,462.433,295.298,458.105,295.298z"/>
  </g>
  <path style="fill:#3E3D42;" d="M491.79,142.316H20.21C9.095,142.316,0,151.41,0,162.526v63.158h512v-63.158  C512,151.41,502.905,142.316,491.79,142.316z"/>
  <g>
    <path style="fill:#2D2D30;" d="M46.003,142.316H20.21C9.095,142.316,0,151.41,0,162.526v63.158h25.792v-63.158   C25.792,151.41,34.887,142.316,46.003,142.316z"/>
    <path style="fill:#2D2D30;" d="M63.299,211.765H42.62c-1.724,0-3.135-1.411-3.135-3.135v-18.11c0-1.724,1.411-3.135,3.135-3.135   h20.677c1.724,0,3.135,1.411,3.135,3.135v18.11C66.434,210.354,65.023,211.765,63.299,211.765z"/>
    <path style="fill:#2D2D30;" d="M100.2,211.765H79.522c-1.724,0-3.135-1.411-3.135-3.135v-18.11c0-1.724,1.411-3.135,3.135-3.135   h20.677c1.724,0,3.135,1.411,3.135,3.135v18.11C103.335,210.354,101.925,211.765,100.2,211.765z"/>
    <path style="fill:#2D2D30;" d="M137.102,211.765h-20.677c-1.724,0-3.135-1.411-3.135-3.135v-18.11c0-1.724,1.411-3.135,3.135-3.135   h20.677c1.724,0,3.135,1.411,3.135,3.135v18.11C140.237,210.354,138.826,211.765,137.102,211.765z"/>
    <path style="fill:#2D2D30;" d="M174.003,211.765h-20.677c-1.724,0-3.135-1.411-3.135-3.135v-18.11c0-1.724,1.411-3.135,3.135-3.135   h20.677c1.724,0,3.135,1.411,3.135,3.135v18.11C177.137,210.354,175.727,211.765,174.003,211.765z"/>
    <path style="fill:#2D2D30;" d="M481.918,211.765h-20.677c-1.724,0-3.135-1.411-3.135-3.135v-18.11c0-1.724,1.411-3.135,3.135-3.135   h20.677c1.724,0,3.135,1.411,3.135,3.135v18.11C485.053,210.354,483.642,211.765,481.918,211.765z"/>
    <path style="fill:#2D2D30;" d="M445.695,211.765h-20.677c-1.724,0-3.135-1.411-3.135-3.135v-18.11c0-1.724,1.411-3.135,3.135-3.135   h20.677c1.724,0,3.135,1.411,3.135,3.135v18.11C448.83,210.354,447.419,211.765,445.695,211.765z"/>
    <path style="fill:#2D2D30;" d="M187.192,174.623H47.322c-4.328,0-7.837-3.509-7.837-7.837c0-4.328,3.509-7.837,7.837-7.837h139.87   c4.328,0,7.837,3.509,7.837,7.837C195.029,171.114,191.52,174.623,187.192,174.623z"/>
  </g>
  <g>
    <circle style="fill:#57565C;" cx="198.008" cy="199.575" r="5.472"/>
    <circle style="fill:#57565C;" cx="217.339" cy="199.575" r="5.472"/>
    <circle style="fill:#57565C;" cx="236.669" cy="199.575" r="5.472"/>
    <circle style="fill:#57565C;" cx="256" cy="199.575" r="5.472"/>
    <circle style="fill:#57565C;" cx="479.577" cy="172.261" r="5.472"/>
    <circle style="fill:#57565C;" cx="460.424" cy="172.261" r="5.472"/>
    <circle style="fill:#57565C;" cx="441.271" cy="172.261" r="5.472"/>
  </g>
  <g/>
  <g/>
  <g/>
  <g/>
  <g/>
  <g/>
  <g/>
  <g/>
  <g/>
  <g/>
  <g/>
  <g/>
  <g/>
  <g/>
  <g/>
</svg>